<svg xmlns="http://www.w3.org/2000/svg" xmlns:xlink="http://www.w3.org/1999/xlink" width="22" zoomAndPan="magnify" viewBox="0 0 16.5 16.5" height="22" preserveAspectRatio="xMidYMid meet" version="1.0"><path fill="#fcb527" d="M 13.488281 15.84375 L 2.355469 15.84375 C 1.054688 15.84375 0 14.789062 0 13.488281 L 0 2.355469 C 0 1.054688 1.054688 0 2.355469 0 L 13.488281 0 C 14.789062 0 15.84375 1.054688 15.84375 2.355469 L 15.84375 13.488281 C 15.84375 14.789062 14.789062 15.84375 13.488281 15.84375 Z M 2.355469 0.855469 C 1.527344 0.855469 0.855469 1.527344 0.855469 2.355469 L 0.855469 13.488281 C 0.855469 14.316406 1.527344 14.988281 2.355469 14.988281 L 13.488281 14.988281 C 14.316406 14.988281 14.988281 14.316406 14.988281 13.488281 L 14.988281 2.355469 C 14.988281 1.527344 14.316406 0.855469 13.488281 0.855469 Z M 2.355469 0.855469 " fill-opacity="1" fill-rule="nonzero"/><path fill="#fcb527" d="M 7.921875 12.417969 C 5.441406 12.417969 3.425781 10.402344 3.425781 7.921875 C 3.425781 5.441406 5.441406 3.425781 7.921875 3.425781 C 10.402344 3.425781 12.417969 5.441406 12.417969 7.921875 C 12.417969 10.402344 10.402344 12.417969 7.921875 12.417969 Z M 7.921875 4.28125 C 5.914062 4.28125 4.28125 5.914062 4.28125 7.921875 C 4.28125 9.929688 5.914062 11.5625 7.921875 11.5625 C 9.929688 11.5625 11.5625 9.929688 11.5625 7.921875 C 11.5625 5.914062 9.929688 4.28125 7.921875 4.28125 Z M 7.921875 4.28125 " fill-opacity="1" fill-rule="nonzero"/><path fill="#fcb527" d="M 12.632812 4.710938 C 11.804688 4.710938 11.132812 4.039062 11.132812 3.210938 C 11.132812 2.386719 11.804688 1.710938 12.632812 1.710938 C 13.457031 1.710938 14.132812 2.386719 14.132812 3.210938 C 14.132812 4.039062 13.457031 4.710938 12.632812 4.710938 Z M 12.632812 2.570312 C 12.277344 2.570312 11.988281 2.859375 11.988281 3.210938 C 11.988281 3.566406 12.277344 3.855469 12.632812 3.855469 C 12.988281 3.855469 13.273438 3.566406 13.273438 3.210938 C 13.273438 2.859375 12.988281 2.570312 12.632812 2.570312 Z M 12.632812 2.570312 " fill-opacity="1" fill-rule="nonzero"/></svg>