<svg xmlns="http://www.w3.org/2000/svg" xmlns:xlink="http://www.w3.org/1999/xlink" width="22" zoomAndPan="magnify" viewBox="0 0 16.5 16.5" height="22" preserveAspectRatio="xMidYMid meet" version="1.0"><path fill="#fcb527" d="M 13.851562 0.03125 L 1.988281 0.03125 C 0.898438 0.03125 0 0.925781 0 2.011719 L 0 13.824219 C 0 14.910156 0.898438 15.8125 1.988281 15.8125 L 7.890625 15.8125 L 7.890625 10.367188 L 5.941406 10.367188 L 5.941406 7.953125 L 7.890625 7.953125 L 7.890625 5.949219 C 7.890625 4.316406 9.246094 3.03125 10.886719 3.03125 L 12.902344 3.03125 L 12.902344 5.476562 L 11.875 5.476562 C 11.328125 5.476562 10.894531 5.40625 10.894531 5.949219 L 10.894531 7.953125 L 13.359375 7.953125 L 12.371094 10.367188 L 10.894531 10.367188 L 10.894531 15.8125 L 13.851562 15.8125 C 14.945312 15.8125 15.84375 14.910156 15.84375 13.824219 L 15.84375 2.011719 C 15.84375 0.925781 14.945312 0.03125 13.851562 0.03125 Z M 13.851562 0.03125 " fill-opacity="1" fill-rule="nonzero"/></svg>