<svg xmlns="http://www.w3.org/2000/svg" xmlns:xlink="http://www.w3.org/1999/xlink" width="22" zoomAndPan="magnify" viewBox="0 0 16.5 16.5" height="22" preserveAspectRatio="xMidYMid meet" version="1.0"><path fill="#fcb527" d="M 3.152344 0 L 12.691406 0 C 13.109375 0 13.511719 0.078125 13.898438 0.238281 C 14.285156 0.398438 14.625 0.628906 14.921875 0.921875 C 15.214844 1.21875 15.445312 1.558594 15.605469 1.945312 C 15.765625 2.332031 15.84375 2.734375 15.84375 3.152344 L 15.84375 12.691406 C 15.84375 13.109375 15.765625 13.511719 15.605469 13.898438 C 15.445312 14.285156 15.214844 14.625 14.921875 14.921875 C 14.625 15.214844 14.285156 15.445312 13.898438 15.605469 C 13.511719 15.765625 13.109375 15.84375 12.691406 15.84375 L 3.152344 15.84375 C 2.734375 15.84375 2.332031 15.765625 1.945312 15.605469 C 1.558594 15.445312 1.21875 15.214844 0.921875 14.921875 C 0.628906 14.625 0.398438 14.285156 0.238281 13.898438 C 0.078125 13.511719 0 13.109375 0 12.691406 L 0 3.152344 C 0 2.734375 0.078125 2.332031 0.238281 1.945312 C 0.398438 1.558594 0.628906 1.21875 0.921875 0.921875 C 1.21875 0.628906 1.558594 0.398438 1.945312 0.238281 C 2.332031 0.078125 2.734375 0 3.152344 0 Z M 3.152344 0 " fill-opacity="1" fill-rule="nonzero"/><path fill="#23272a" d="M 2.132812 10.03125 L 2.132812 4.867188 L 7.273438 9.019531 C 7.457031 9.179688 7.691406 9.265625 7.921875 9.265625 C 8.148438 9.265625 8.382812 9.179688 8.566406 9.019531 L 13.710938 4.867188 L 13.710938 10.03125 C 13.710938 10.9375 12.972656 11.671875 12.066406 11.671875 L 3.773438 11.671875 C 2.867188 11.671875 2.132812 10.9375 2.132812 10.03125 Z M 7.988281 8.335938 L 8.003906 8.324219 L 13.140625 4.175781 L 2.707031 4.175781 L 7.859375 8.335938 C 7.898438 8.367188 7.949219 8.367188 7.988281 8.335938 Z M 7.988281 8.335938 " fill-opacity="1" fill-rule="nonzero"/></svg>